# xmcd
# Track frame offsets:
# 150
# 9234
# 20704
# 32290
# 45730
# 59205
# 78024
# 88099
# 100038
# 112030
# 132347
# 142003
#
# Disc length: 2047 seconds
# Revision: 1
# Processed by: cddbd v1.5.2PL0 Copyright (c) Steve Scherf et al.
# Submitted via: VisiTrax 2.11.2.271 - For more info visit www.synapsa.com
#
DISCID=9907fd0c
DTITLE=Slim Dusty and Joy McKean - Foolin' Around
DYEAR=1973
DGENRE=Australian Country
TTITLE0=Slim Dusty With Joy McKean - Foolin' Around
TTITLE1=Slim Dusty With Joy McKean - 'Cause I Have You
TTITLE2=Slim Dusty With Joy McKean - Top Of The World
TTITLE3=Slim Dusty - A Prouder Man Than You
TTITLE4=Slim Dusty With Joy McKean - This Song Is Just For You
TTITLE5=Joy McKean - Eternal Love
TTITLE6=Slim Dusty - God's Own Singer Of Songs
TTITLE7=Slim Dusty - Many Mothers
TTITLE8=Slim Dusty With Joy McKean - The Kingdom I Call Home
TTITLE9=Slim Dusty - Happy Anniversary
TTITLE10=Slim Dusty With Joy McKean - The Day I Married You
TTITLE11=Slim Dusty With Joy McKean - The Long Road
EXTD=1996 EMI Music Australia
EXTT0=
EXTT1=
EXTT2=
EXTT3=
EXTT4=
EXTT5=
EXTT6=
EXTT7=
EXTT8=
EXTT9=
EXTT10=
EXTT11=
PLAYORDER=
